<svg width="300" height="300" viewBox="0 0 300 300" fill="none" xmlns="http://www.w3.org/2000/svg">
  <path d="M140.931 297.003L27.1718 231.143C24.4443 229.558 22.1797 227.283 20.6046 224.546C19.0295 221.808 18.1991 218.704 18.1963 215.544V83.8777C18.1897 80.708 19.0158 77.5931 20.5914 74.845C22.1669 72.0975 24.4365 69.8138 27.1718 68.2243L140.931 2.41809C143.668 0.833967 146.773 0 149.933 0C153.094 0 156.198 0.833967 158.935 2.41809L272.641 68.2777C275.376 69.8673 277.646 72.1503 279.221 74.8984C280.797 77.6459 281.623 80.7615 281.617 83.9305V215.544C281.623 218.713 280.797 221.828 279.221 224.576C277.646 227.324 275.376 229.607 272.641 231.196L158.935 297.003C156.198 298.587 153.094 299.421 149.933 299.421C146.773 299.421 143.668 298.587 140.931 297.003Z" fill="#75D14D"/>
  <path d="M71.4455 125.651L41.3628 155.809C33.0972 164.081 33.0972 177.52 41.3628 185.802C49.6331 194.084 63.0303 194.084 71.295 185.816L101.378 155.654C109.638 147.372 109.643 133.942 101.378 125.656C93.1168 117.368 79.7158 117.368 71.4455 125.651ZM52.0121 171.249C50.1015 173.16 46.9987 173.16 45.0835 171.249C43.1777 169.33 43.1777 166.22 45.0835 164.304C46.9893 162.374 50.1006 162.374 52.0121 164.304C53.932 166.22 53.9358 169.33 52.0121 171.249ZM55.587 153.77C57.4975 151.859 60.605 151.859 62.5193 153.77C64.4346 155.69 64.4346 158.804 62.5193 160.724C60.6041 162.644 57.4975 162.644 55.587 160.724C53.6775 158.804 53.668 155.69 55.587 153.77ZM62.8297 182.085C60.9192 184 57.8079 184 55.9012 182.085C53.9812 180.16 53.9812 177.055 55.9012 175.13C57.807 173.22 60.9192 173.22 62.8297 175.13C64.7402 177.055 64.7402 180.161 62.8297 182.085ZM73.3153 171.559C71.418 173.479 68.3115 173.479 66.3962 171.559C64.4809 169.649 64.4809 166.535 66.3962 164.61C68.3115 162.695 71.4095 162.695 73.32 164.61C75.2343 166.535 75.2343 169.644 73.3153 171.559ZM94.9363 146.91C96.4419 148.416 96.4419 150.873 94.9363 152.383C94.1858 153.136 93.1941 153.514 92.203 153.514C91.2113 153.514 90.2329 153.136 89.4691 152.383L84.8247 147.722L80.171 152.383C79.4158 153.136 78.4242 153.514 77.4458 153.514C76.454 153.514 75.4576 153.136 74.7072 152.383C73.1923 150.873 73.2018 148.416 74.7072 146.91L79.3515 142.24L74.7072 137.58C73.2018 136.074 73.1923 133.626 74.7072 132.102C76.2137 130.593 78.6608 130.588 80.171 132.102L84.8247 136.768L89.4691 132.102C90.984 130.588 93.4307 130.593 94.9363 132.102C96.4419 133.626 96.4419 136.074 94.9363 137.58L90.2875 142.24L94.9363 146.91Z" fill="#4C4D41"/>
  <path d="M99.0902 114.044C97.8845 114.199 97.9025 114.623 97.8532 114.559C97.1713 115.243 97.1713 116.342 97.8532 117.027C98.2217 117.401 98.7176 117.569 99.2048 117.533C103.231 117.569 106.697 119.918 108.394 123.343C109.086 124.748 109.471 126.285 109.471 127.953C109.471 128.92 110.254 129.696 111.214 129.696C112.178 129.696 112.952 128.92 112.952 127.953C112.952 125.742 112.433 123.653 111.51 121.806C109.243 117.205 104.531 114.049 99.0902 114.044Z" fill="#4C4D41"/>
  <path d="M99.636 106.638C98.4616 106.638 97.5112 107.592 97.5112 108.773C97.5112 109.95 98.4623 110.912 99.636 110.912V110.902C108.72 110.92 116.072 118.29 116.085 127.397C116.085 128.565 117.036 129.522 118.209 129.522C119.383 129.522 120.338 128.564 120.338 127.397C120.338 115.928 111.068 106.647 99.636 106.638Z" fill="#4C4D41"/>
  <path d="M144.872 126.409H149.166V143.973H144.872L138.001 133.698V143.973H133.707V126.409H138.001L144.872 136.684V126.409ZM160.875 140.127C163.996 140.127 165.599 138.118 165.599 135.191C165.599 132.092 163.881 130.255 160.875 130.255C157.726 130.255 156.151 132.263 156.151 135.191C156.151 138.233 157.897 140.127 160.875 140.127ZM160.875 144.117C155.493 144.117 151.857 140.443 151.857 135.191C151.857 129.766 155.665 126.265 160.875 126.265C166.286 126.265 169.893 129.91 169.893 135.191C169.893 140.644 166.114 144.117 160.875 144.117ZM178.711 143.973H172.556V126.409H178.711C184.064 126.409 187.729 129.91 187.729 135.191C187.729 140.615 183.864 143.973 178.711 143.973ZM176.85 130.398V139.984H178.711C181.746 139.984 183.435 138.061 183.435 135.191C183.435 134.531 183.349 133.928 183.177 133.326C182.433 131.23 180.801 130.398 178.711 130.398H176.85ZM190.391 126.409H203.418V130.398H194.686V133.211H201.7V137.2H194.686V139.984H203.418V143.973H190.391V126.409ZM210.146 134.301V143.973H205.851V126.409H210.146L215.613 136.109L221.082 126.409H225.376V143.973H221.082V134.301L217.761 140.012H213.467L210.146 134.301ZM237.085 140.127C240.206 140.127 241.809 138.118 241.809 135.191C241.809 132.092 240.092 130.255 237.085 130.255C233.936 130.255 232.362 132.263 232.362 135.191C232.362 138.233 234.108 140.127 237.085 140.127ZM237.085 144.117C231.703 144.117 228.067 140.443 228.067 135.191C228.067 129.766 231.875 126.265 237.085 126.265C242.496 126.265 246.103 129.91 246.103 135.191C246.103 140.644 242.324 144.117 237.085 144.117ZM259.931 126.409H264.226V143.973H259.931L253.06 133.698V143.973H248.766V126.409H253.06L259.931 136.684V126.409Z" fill="#4C4D41"/>
  <path d="M139.062 155.698V160.925H144.062C145.705 160.925 146.669 159.958 146.669 158.311C146.669 156.665 145.705 155.698 144.062 155.698H139.062ZM147.169 164.469C148.169 165.829 149.168 167.19 150.204 168.514C151.204 169.839 152.204 171.199 153.204 172.56H146.669C145.383 170.841 144.134 169.123 142.883 167.405C141.634 165.722 140.348 164.004 139.062 162.285V172.56H133.707V150.651H144.062C148.133 150.651 151.597 153.765 151.597 157.882C151.597 160.781 149.812 163.324 147.169 164.469ZM155.453 150.651H171.702V155.627H160.81V159.135H169.559V164.111H160.81V167.583H171.702V172.56H155.453V150.651ZM180.094 160.495V172.56H174.737V150.651H180.094L186.914 162.75L193.735 150.651H199.091V172.56H193.735V160.495L189.592 167.619H184.236L180.094 160.495ZM213.696 167.762C217.588 167.762 219.588 165.257 219.588 161.605C219.588 157.739 217.446 155.447 213.696 155.447C209.768 155.447 207.804 157.954 207.804 161.605C207.804 165.4 209.982 167.762 213.696 167.762ZM213.696 172.739C206.983 172.739 202.448 168.156 202.448 161.605C202.448 154.839 207.197 150.472 213.696 150.472C220.445 150.472 224.945 155.018 224.945 161.605C224.945 168.407 220.231 172.739 213.696 172.739ZM226.98 150.651H245.192V155.627H238.765V172.56H233.408V155.627H226.98V150.651ZM247.977 150.651H264.226V155.627H253.334V159.135H262.083V164.111H253.334V167.583H264.226V172.56H247.977V150.651Z" fill="#4C4D41"/>
</svg>
